<svg xmlns="http://www.w3.org/2000/svg" viewBox="0 0 878.13 878.02"><defs><style>.cls-1{fill:#888;}</style></defs><title>linkedin</title><g id="Layer_2" data-name="Layer 2"><g id="Layer_1-2" data-name="Layer 1"><path class="cls-1" d="M809.5,878H66.89c-5-1.39-6.75-2.5-10.17-3.57C33.31,867.16,17,852,6.59,830,4,824.46,1.53,820.62,0,812.85V67.3c.44-4.42,2.59-7.62,3.56-10.47C14.4,25,36.13,6,69.61,1.13A112.75,112.75,0,0,1,85.83.05Q439.07,0,792.29,0c14.13,0,28,1.59,40.72,8.16,30.81,15.82,45,41.67,45.07,75.75q.1,180,0,360,0,174.88,0,349.77c0,28.35-10,51.67-33,69C834.5,870.85,821.9,874.13,809.5,878ZM481.64,376.4c0-9,0-18,0-27.06-.06-18.42-8.31-26.82-26.47-26.84q-45.87-.06-91.74,0c-18.28,0-26.67,8.33-26.68,26.67q0,202.75,0,405.52c0,18.41,8.24,26.58,26.7,26.62q45.44.11,90.88,0c19.45,0,27.3-8,27.3-27.73q0-103.74,0-207.48c0-23.61,5-46,16-66.75,15.69-29.57,41-41.55,73.91-38.58,29.36,2.65,48.07,18.76,58,46,6.25,17.16,8.24,35,8.3,53.05.2,72,0,144,.07,216,0,16.91,8.19,25.34,25.08,25.41q48.87.21,97.75,0c16.89-.07,25.06-8.43,25.06-25.41,0-76,.16-152-.35-228-.22-33.16-2.86-66.21-12-98.35-9.9-34.62-26.37-65.1-56.39-86.52-24-17.09-51.34-24.48-80.31-26.4-34.86-2.32-69.05.29-101.35,15.3C513.81,341.86,497.14,357.54,481.64,376.4ZM127,551.24q0,101.13,0,202.25c0,19,8.69,27.73,27.79,27.8q44.56.15,89.14,0c19.29-.06,27.67-8.44,27.67-27.77q.08-201.39,0-402.78c0-19.74-8.51-28.22-28.07-28.24q-43.71-.06-87.43,0c-20.66,0-29.11,8.44-29.11,29.08Q127,451.4,127,551.24Zm72.76-267.72c51.55-.26,93.16-41.87,93.22-93.2.06-51.51-42.43-93.8-93.91-93.5a93.35,93.35,0,0,0,.69,186.7Z"/></g></g></svg>